<svg width="133" height="45" viewBox="0 0 133 45" fill="none" xmlns="http://www.w3.org/2000/svg">
<rect width="133" height="45" rx="10" fill="black"/>
<path d="M47.9292 17.76H56.0172L55.3692 20.88H47.3052L47.9292 17.76ZM46.3932 27H42.4812L45.8412 10.2H58.5372L57.8892 13.32H49.1052L46.3932 27ZM57.8093 27L61.1693 10.2H67.9613C70.0573 10.2 71.6733 10.664 72.8093 11.592C73.9613 12.504 74.5373 13.784 74.5373 15.432C74.5373 16.84 74.2093 18.072 73.5533 19.128C72.8973 20.168 71.9533 20.968 70.7213 21.528C69.5053 22.088 68.0573 22.368 66.3773 22.368H60.9293L62.9933 20.592L61.7213 27H57.8093ZM62.8973 21.048L61.5293 19.2H66.5453C67.8253 19.2 68.8173 18.912 69.5213 18.336C70.2413 17.744 70.6013 16.888 70.6013 15.768C70.6013 14.952 70.3293 14.352 69.7853 13.968C69.2413 13.568 68.4733 13.368 67.4813 13.368H62.7533L64.8173 11.472L62.8973 21.048ZM72.882 27L81.93 17.208L81.546 19.44L76.578 10.2H80.73L84.186 16.824L82.482 16.776L88.434 10.2H92.85L84.354 19.44L84.474 17.232L89.802 27H85.602L81.954 19.992L83.706 20.064L77.538 27H72.882Z" fill="white"/>
<path d="M16.7364 34.22H20.2264V35.32H16.7364V34.22ZM16.8464 38H15.5464V31H20.6564V32.09H16.8464V38ZM24.9079 38V36.92L24.8379 36.69V34.8C24.8379 34.4333 24.7279 34.15 24.5079 33.95C24.2879 33.7433 23.9545 33.64 23.5079 33.64C23.2079 33.64 22.9112 33.6867 22.6179 33.78C22.3312 33.8733 22.0879 34.0033 21.8879 34.17L21.3979 33.26C21.6845 33.04 22.0245 32.8767 22.4179 32.77C22.8179 32.6567 23.2312 32.6 23.6579 32.6C24.4312 32.6 25.0279 32.7867 25.4479 33.16C25.8745 33.5267 26.0879 34.0967 26.0879 34.87V38H24.9079ZM23.2279 38.07C22.8279 38.07 22.4779 38.0033 22.1779 37.87C21.8779 37.73 21.6445 37.54 21.4779 37.3C21.3179 37.0533 21.2379 36.7767 21.2379 36.47C21.2379 36.17 21.3079 35.9 21.4479 35.66C21.5945 35.42 21.8312 35.23 22.1579 35.09C22.4845 34.95 22.9179 34.88 23.4579 34.88H25.0079V35.71H23.5479C23.1212 35.71 22.8345 35.78 22.6879 35.92C22.5412 36.0533 22.4679 36.22 22.4679 36.42C22.4679 36.6467 22.5579 36.8267 22.7379 36.96C22.9179 37.0933 23.1679 37.16 23.4879 37.16C23.7945 37.16 24.0679 37.09 24.3079 36.95C24.5545 36.81 24.7312 36.6033 24.8379 36.33L25.0479 37.08C24.9279 37.3933 24.7112 37.6367 24.3979 37.81C24.0912 37.9833 23.7012 38.07 23.2279 38.07ZM29.3421 38.07C28.8954 38.07 28.4654 38.0133 28.0521 37.9C27.6454 37.78 27.3221 37.6367 27.0821 37.47L27.5621 36.52C27.8021 36.6733 28.0887 36.8 28.4221 36.9C28.7554 37 29.0887 37.05 29.4221 37.05C29.8154 37.05 30.0987 36.9967 30.2721 36.89C30.4521 36.7833 30.5421 36.64 30.5421 36.46C30.5421 36.3133 30.4821 36.2033 30.3621 36.13C30.2421 36.05 30.0854 35.99 29.8921 35.95C29.6987 35.91 29.4821 35.8733 29.2421 35.84C29.0087 35.8067 28.7721 35.7633 28.5321 35.71C28.2987 35.65 28.0854 35.5667 27.8921 35.46C27.6987 35.3467 27.5421 35.1967 27.4221 35.01C27.3021 34.8233 27.2421 34.5767 27.2421 34.27C27.2421 33.93 27.3387 33.6367 27.5321 33.39C27.7254 33.1367 27.9954 32.9433 28.3421 32.81C28.6954 32.67 29.1121 32.6 29.5921 32.6C29.9521 32.6 30.3154 32.64 30.6821 32.72C31.0487 32.8 31.3521 32.9133 31.5921 33.06L31.1121 34.01C30.8587 33.8567 30.6021 33.7533 30.3421 33.7C30.0887 33.64 29.8354 33.61 29.5821 33.61C29.2021 33.61 28.9187 33.6667 28.7321 33.78C28.5521 33.8933 28.4621 34.0367 28.4621 34.21C28.4621 34.37 28.5221 34.49 28.6421 34.57C28.7621 34.65 28.9187 34.7133 29.1121 34.76C29.3054 34.8067 29.5187 34.8467 29.7521 34.88C29.9921 34.9067 30.2287 34.95 30.4621 35.01C30.6954 35.07 30.9087 35.1533 31.1021 35.26C31.3021 35.36 31.4621 35.5033 31.5821 35.69C31.7021 35.8767 31.7621 36.12 31.7621 36.42C31.7621 36.7533 31.6621 37.0433 31.4621 37.29C31.2687 37.5367 30.9921 37.73 30.6321 37.87C30.2721 38.0033 29.8421 38.07 29.3421 38.07ZM34.8486 38.07C34.2619 38.07 33.8086 37.92 33.4886 37.62C33.1686 37.3133 33.0086 36.8633 33.0086 36.27V31.48H34.2586V36.24C34.2586 36.4933 34.3219 36.69 34.4486 36.83C34.5819 36.97 34.7652 37.04 34.9986 37.04C35.2786 37.04 35.5119 36.9667 35.6986 36.82L36.0486 37.71C35.9019 37.83 35.7219 37.92 35.5086 37.98C35.2952 38.04 35.0752 38.07 34.8486 38.07ZM32.1286 33.7V32.7H35.6886V33.7H32.1286ZM39.9605 38V31H42.8405C43.4605 31 43.9905 31.1 44.4305 31.3C44.8772 31.5 45.2205 31.7867 45.4605 32.16C45.7005 32.5333 45.8205 32.9767 45.8205 33.49C45.8205 34.0033 45.7005 34.4467 45.4605 34.82C45.2205 35.1933 44.8772 35.48 44.4305 35.68C43.9905 35.88 43.4605 35.98 42.8405 35.98H40.6805L41.2605 35.37V38H39.9605ZM41.2605 35.51L40.6805 34.88H42.7805C43.3538 34.88 43.7838 34.76 44.0705 34.52C44.3638 34.2733 44.5105 33.93 44.5105 33.49C44.5105 33.0433 44.3638 32.7 44.0705 32.46C43.7838 32.22 43.3538 32.1 42.7805 32.1H40.6805L41.2605 31.46V35.51ZM46.9499 38V32.66H48.1399V34.13L47.9999 33.7C48.1599 33.34 48.4099 33.0667 48.7499 32.88C49.0965 32.6933 49.5265 32.6 50.0399 32.6V33.79C49.9865 33.7767 49.9365 33.77 49.8899 33.77C49.8432 33.7633 49.7965 33.76 49.7499 33.76C49.2765 33.76 48.8999 33.9 48.6199 34.18C48.3399 34.4533 48.1999 34.8633 48.1999 35.41V38H46.9499ZM53.4514 38.07C52.9048 38.07 52.4181 37.9533 51.9914 37.72C51.5648 37.48 51.2281 37.1533 50.9814 36.74C50.7348 36.3267 50.6114 35.8567 50.6114 35.33C50.6114 34.7967 50.7348 34.3267 50.9814 33.92C51.2281 33.5067 51.5648 33.1833 51.9914 32.95C52.4181 32.7167 52.9048 32.6 53.4514 32.6C54.0048 32.6 54.4948 32.7167 54.9214 32.95C55.3548 33.1833 55.6914 33.5033 55.9314 33.91C56.1781 34.3167 56.3014 34.79 56.3014 35.33C56.3014 35.8567 56.1781 36.3267 55.9314 36.74C55.6914 37.1533 55.3548 37.48 54.9214 37.72C54.4948 37.9533 54.0048 38.07 53.4514 38.07ZM53.4514 37C53.7581 37 54.0314 36.9333 54.2714 36.8C54.5114 36.6667 54.6981 36.4733 54.8314 36.22C54.9714 35.9667 55.0414 35.67 55.0414 35.33C55.0414 34.9833 54.9714 34.6867 54.8314 34.44C54.6981 34.1867 54.5114 33.9933 54.2714 33.86C54.0314 33.7267 53.7614 33.66 53.4614 33.66C53.1548 33.66 52.8814 33.7267 52.6414 33.86C52.4081 33.9933 52.2214 34.1867 52.0814 34.44C51.9414 34.6867 51.8714 34.9833 51.8714 35.33C51.8714 35.67 51.9414 35.9667 52.0814 36.22C52.2214 36.4733 52.4081 36.6667 52.6414 36.8C52.8814 36.9333 53.1514 37 53.4514 37ZM56.591 38L58.941 34.94L58.921 35.61L56.681 32.66H58.071L59.641 34.76H59.111L60.691 32.66H62.041L59.781 35.61L59.791 34.94L62.131 38H60.721L59.071 35.77L59.591 35.84L57.971 38H56.591ZM63.1907 40.01C62.9307 40.01 62.6707 39.9667 62.4107 39.88C62.1507 39.7933 61.934 39.6733 61.7607 39.52L62.2607 38.6C62.3873 38.7133 62.5307 38.8033 62.6907 38.87C62.8507 38.9367 63.014 38.97 63.1807 38.97C63.4073 38.97 63.5907 38.9133 63.7307 38.8C63.8707 38.6867 64.0007 38.4967 64.1207 38.23L64.4307 37.53L64.5307 37.38L66.5507 32.66H67.7507L65.2507 38.43C65.084 38.83 64.8973 39.1467 64.6907 39.38C64.4907 39.6133 64.264 39.7767 64.0107 39.87C63.764 39.9633 63.4907 40.01 63.1907 40.01ZM64.2907 38.19L61.8807 32.66H63.1807L65.1407 37.27L64.2907 38.19ZM71.4156 38V31H72.4856L75.5456 36.11H74.9856L77.9956 31H79.0656L79.0756 38H77.8456L77.8356 32.93H78.0956L75.5356 37.2H74.9556L72.3556 32.93H72.6556V38H71.4156ZM84.1364 38V36.92L84.0664 36.69V34.8C84.0664 34.4333 83.9564 34.15 83.7364 33.95C83.5164 33.7433 83.183 33.64 82.7364 33.64C82.4364 33.64 82.1397 33.6867 81.8464 33.78C81.5597 33.8733 81.3164 34.0033 81.1164 34.17L80.6264 33.26C80.913 33.04 81.253 32.8767 81.6464 32.77C82.0464 32.6567 82.4597 32.6 82.8864 32.6C83.6597 32.6 84.2564 32.7867 84.6764 33.16C85.103 33.5267 85.3164 34.0967 85.3164 34.87V38H84.1364ZM82.4564 38.07C82.0564 38.07 81.7064 38.0033 81.4064 37.87C81.1064 37.73 80.873 37.54 80.7064 37.3C80.5464 37.0533 80.4664 36.7767 80.4664 36.47C80.4664 36.17 80.5364 35.9 80.6764 35.66C80.823 35.42 81.0597 35.23 81.3864 35.09C81.713 34.95 82.1464 34.88 82.6864 34.88H84.2364V35.71H82.7764C82.3497 35.71 82.063 35.78 81.9164 35.92C81.7697 36.0533 81.6964 36.22 81.6964 36.42C81.6964 36.6467 81.7864 36.8267 81.9664 36.96C82.1464 37.0933 82.3964 37.16 82.7164 37.16C83.023 37.16 83.2964 37.09 83.5364 36.95C83.783 36.81 83.9597 36.6033 84.0664 36.33L84.2764 37.08C84.1564 37.3933 83.9397 37.6367 83.6264 37.81C83.3197 37.9833 82.9297 38.07 82.4564 38.07ZM89.9506 32.6C90.3773 32.6 90.7573 32.6833 91.0906 32.85C91.4306 33.0167 91.6973 33.2733 91.8906 33.62C92.0839 33.96 92.1806 34.4 92.1806 34.94V38H90.9306V35.1C90.9306 34.6267 90.8173 34.2733 90.5906 34.04C90.3706 33.8067 90.0606 33.69 89.6606 33.69C89.3673 33.69 89.1073 33.75 88.8806 33.87C88.6539 33.99 88.4773 34.17 88.3506 34.41C88.2306 34.6433 88.1706 34.94 88.1706 35.3V38H86.9206V32.66H88.1106V34.1L87.9006 33.66C88.0873 33.32 88.3573 33.06 88.7106 32.88C89.0706 32.6933 89.4839 32.6 89.9506 32.6ZM97.0563 38V36.92L96.9863 36.69V34.8C96.9863 34.4333 96.8763 34.15 96.6563 33.95C96.4363 33.7433 96.103 33.64 95.6563 33.64C95.3563 33.64 95.0596 33.6867 94.7663 33.78C94.4796 33.8733 94.2363 34.0033 94.0363 34.17L93.5463 33.26C93.833 33.04 94.173 32.8767 94.5663 32.77C94.9663 32.6567 95.3796 32.6 95.8063 32.6C96.5796 32.6 97.1763 32.7867 97.5963 33.16C98.023 33.5267 98.2363 34.0967 98.2363 34.87V38H97.0563ZM95.3763 38.07C94.9763 38.07 94.6263 38.0033 94.3263 37.87C94.0263 37.73 93.793 37.54 93.6263 37.3C93.4663 37.0533 93.3863 36.7767 93.3863 36.47C93.3863 36.17 93.4563 35.9 93.5963 35.66C93.743 35.42 93.9796 35.23 94.3063 35.09C94.633 34.95 95.0663 34.88 95.6063 34.88H97.1563V35.71H95.6963C95.2696 35.71 94.983 35.78 94.8363 35.92C94.6896 36.0533 94.6163 36.22 94.6163 36.42C94.6163 36.6467 94.7063 36.8267 94.8863 36.96C95.0663 37.0933 95.3163 37.16 95.6363 37.16C95.943 37.16 96.2163 37.09 96.4563 36.95C96.703 36.81 96.8796 36.6033 96.9863 36.33L97.1963 37.08C97.0763 37.3933 96.8596 37.6367 96.5463 37.81C96.2396 37.9833 95.8496 38.07 95.3763 38.07ZM102.27 40.01C101.777 40.01 101.294 39.9433 100.82 39.81C100.354 39.6833 99.9703 39.4967 99.6703 39.25L100.23 38.31C100.464 38.5033 100.757 38.6567 101.11 38.77C101.47 38.89 101.834 38.95 102.2 38.95C102.787 38.95 103.217 38.8133 103.49 38.54C103.764 38.2733 103.9 37.87 103.9 37.33V36.38L104 35.17L103.96 33.96V32.66H105.15V37.19C105.15 38.1567 104.904 38.8667 104.41 39.32C103.917 39.78 103.204 40.01 102.27 40.01ZM102.11 37.76C101.604 37.76 101.144 37.6533 100.73 37.44C100.324 37.22 100 36.9167 99.7603 36.53C99.5269 36.1433 99.4103 35.69 99.4103 35.17C99.4103 34.6567 99.5269 34.2067 99.7603 33.82C100 33.4333 100.324 33.1333 100.73 32.92C101.144 32.7067 101.604 32.6 102.11 32.6C102.564 32.6 102.97 32.69 103.33 32.87C103.69 33.05 103.977 33.33 104.19 33.71C104.41 34.09 104.52 34.5767 104.52 35.17C104.52 35.7633 104.41 36.2533 104.19 36.64C103.977 37.02 103.69 37.3033 103.33 37.49C102.97 37.67 102.564 37.76 102.11 37.76ZM102.3 36.7C102.614 36.7 102.894 36.6367 103.14 36.51C103.387 36.3767 103.577 36.1967 103.71 35.97C103.85 35.7367 103.92 35.47 103.92 35.17C103.92 34.87 103.85 34.6067 103.71 34.38C103.577 34.1467 103.387 33.97 103.14 33.85C102.894 33.7233 102.614 33.66 102.3 33.66C101.987 33.66 101.704 33.7233 101.45 33.85C101.204 33.97 101.01 34.1467 100.87 34.38C100.737 34.6067 100.67 34.87 100.67 35.17C100.67 35.47 100.737 35.7367 100.87 35.97C101.01 36.1967 101.204 36.3767 101.45 36.51C101.704 36.6367 101.987 36.7 102.3 36.7ZM109.304 38.07C108.71 38.07 108.19 37.9533 107.744 37.72C107.304 37.48 106.96 37.1533 106.714 36.74C106.474 36.3267 106.354 35.8567 106.354 35.33C106.354 34.7967 106.47 34.3267 106.704 33.92C106.944 33.5067 107.27 33.1833 107.684 32.95C108.104 32.7167 108.58 32.6 109.114 32.6C109.634 32.6 110.097 32.7133 110.504 32.94C110.91 33.1667 111.23 33.4867 111.464 33.9C111.697 34.3133 111.814 34.8 111.814 35.36C111.814 35.4133 111.81 35.4733 111.804 35.54C111.804 35.6067 111.8 35.67 111.794 35.73H107.344V34.9H111.134L110.644 35.16C110.65 34.8533 110.587 34.5833 110.454 34.35C110.32 34.1167 110.137 33.9333 109.904 33.8C109.677 33.6667 109.414 33.6 109.114 33.6C108.807 33.6 108.537 33.6667 108.304 33.8C108.077 33.9333 107.897 34.12 107.764 34.36C107.637 34.5933 107.574 34.87 107.574 35.19V35.39C107.574 35.71 107.647 35.9933 107.794 36.24C107.94 36.4867 108.147 36.6767 108.414 36.81C108.68 36.9433 108.987 37.01 109.334 37.01C109.634 37.01 109.904 36.9633 110.144 36.87C110.384 36.7767 110.597 36.63 110.784 36.43L111.454 37.2C111.214 37.48 110.91 37.6967 110.544 37.85C110.184 37.9967 109.77 38.07 109.304 38.07ZM113.014 38V32.66H114.204V34.13L114.064 33.7C114.224 33.34 114.474 33.0667 114.814 32.88C115.161 32.6933 115.591 32.6 116.104 32.6V33.79C116.051 33.7767 116.001 33.77 115.954 33.77C115.908 33.7633 115.861 33.76 115.814 33.76C115.341 33.76 114.964 33.9 114.684 34.18C114.404 34.4533 114.264 34.8633 114.264 35.41V38H113.014Z" fill="#F55139"/>
<path d="M16.2651 29.4L28.5771 6.792H32.7771L20.4651 29.4H16.2651ZM24.3979 29.4L36.7099 6.792H40.9099L28.5979 29.4H24.3979Z" fill="#F55139"/>
</svg>
